<svg width="172" height="172" viewBox="0 0 172 172" fill="none" xmlns="http://www.w3.org/2000/svg">
<g clip-path="url(#clip0_161_41)">
<path d="M85.7899 171.983C67.3121 171.983 48.8396 172.031 30.3618 171.967C15.8112 171.919 3.94876 162.61 0.74881 148.753C0.231646 146.506 0.0377098 144.141 0.0323227 141.83C-0.0161614 119.262 0.0107742 96.6987 0 74.1305C0 63.994 4.11576 55.8858 12.1264 49.6353C30.2756 35.4634 48.4087 21.2755 66.5309 7.07699C78.4904 -2.2962 93.3103 -2.39228 105.291 6.95422C123.554 21.1955 141.784 35.4741 160.019 49.7527C167.954 55.9659 171.989 64.074 171.984 74.1305C171.978 96.6987 172.032 119.267 171.962 141.835C171.914 157.229 161.565 169.181 146.239 171.684C144.396 171.983 142.489 171.978 140.615 171.978C122.342 171.999 104.063 171.988 85.7899 171.988V171.983ZM85.9946 163.496C104.273 163.496 122.552 163.501 140.83 163.496C154.174 163.491 163.402 154.374 163.413 141.189C163.424 118.883 163.402 96.5759 163.424 74.2692C163.429 66.9137 160.525 60.9995 154.713 56.457C136.413 42.1517 118.129 27.8197 99.8072 13.5357C91.1501 6.78341 80.7045 6.86881 72.015 13.6638C53.8173 27.8891 35.6358 42.1303 17.422 56.3342C11.4746 60.9728 8.53859 66.9565 8.55475 74.4721C8.59785 96.6453 8.56552 118.819 8.57091 140.992C8.57091 154.448 17.7344 163.491 31.3584 163.496C49.5723 163.501 67.7808 163.496 85.9946 163.496Z" fill="black"/>
<path d="M48.9759 78.9495C50.0674 73.2875 52.1309 68.0689 55.8772 63.5836C59.5553 59.1836 63.9894 55.7841 69.2648 53.5841C70.8736 52.9133 71.408 52.0663 71.2374 50.429C71.1067 49.1443 71.1749 47.8311 71.2261 46.535C71.3341 43.8802 73.0395 42.1748 75.7114 42.1179C78.1786 42.0668 80.6457 42.1065 83.4256 42.1065C83.4256 41.2709 83.4256 40.5603 83.4256 39.8554C83.4256 28.9065 83.4256 17.9633 83.4256 7.01447C83.4256 4.5757 84.4375 3.2341 86.2396 3.22841C88.053 3.22273 89.099 4.5757 89.099 6.98604C89.099 17.8724 89.099 28.753 89.099 39.6394C89.099 40.3727 89.099 41.106 89.099 42.1009C91.5662 42.1009 93.8913 42.0838 96.222 42.1009C99.6727 42.1293 101.537 43.7779 101.236 47.2456C100.906 51.0316 102.015 52.9929 105.67 54.903C117.227 60.9345 123.719 70.5361 123.594 83.9862C123.594 84.3501 123.549 84.7139 123.515 85.288C122.759 85.3222 122.048 85.3847 121.337 85.3847C113.669 85.3904 106 85.4131 98.3311 85.3676C97.0406 85.362 96.3812 85.5837 96.1083 87.0617C95.2385 91.7516 91.1114 95.0772 86.3533 95.1511C81.5951 95.225 77.3486 91.8596 76.3992 87.0787C76.1207 85.6689 75.5238 85.3506 74.1935 85.362C66.5248 85.4188 58.856 85.3961 51.1873 85.3847C50.4483 85.3847 49.7149 85.2994 48.9759 85.2483C48.9759 83.1449 48.9759 81.0415 48.9759 78.9382V78.9495ZM117.449 79.5805C117.915 67.688 102.163 55.6477 86.2566 55.6363C70.3677 55.6249 54.5697 67.6937 55.0529 79.5805H117.449ZM76.9734 50.3324H95.4773V47.9619H76.9734V50.3324ZM82.1352 85.6576C82.3853 88.0338 84.0111 89.4209 86.3703 89.3754C88.6215 89.3299 90.1791 87.903 90.3553 85.6576H82.1352Z" fill="black"/>
<path d="M89.7755 111.54C89.7755 109.609 88.2115 108.044 86.2822 108.044C84.3529 108.044 82.7889 109.609 82.7889 111.54V126.73C82.7889 128.661 84.3529 130.226 86.2822 130.226C88.2115 130.226 89.7755 128.661 89.7755 126.73V111.54Z" fill="black"/>
<path d="M61.7811 107.37C63.1464 106.005 63.1473 103.792 61.7831 102.428C60.4189 101.064 58.2062 101.065 56.8409 102.43L46.1001 113.171C44.7348 114.536 44.7339 116.749 46.0981 118.113C47.4623 119.477 49.675 119.476 51.0404 118.111L61.7811 107.37Z" fill="black"/>
<path d="M117.493 102.434C116.128 101.068 113.915 101.067 112.551 102.432C111.187 103.796 111.188 106.009 112.553 107.374L123.294 118.115C124.659 119.48 126.872 119.481 128.236 118.117C129.6 116.752 129.6 114.54 128.234 113.174L117.493 102.434Z" fill="black"/>
</g>
<defs>
<clipPath id="clip0_161_41">
<rect width="172" height="172" fill="white"/>
</clipPath>
</defs>
</svg>
